<svg xmlns="http://www.w3.org/2000/svg" xmlns:xlink="http://www.w3.org/1999/xlink" contentStyleType="text/css" data-diagram-type="ACTIVITY" height="1765px" preserveAspectRatio="none" style="width:608px;height:1765px;background:#FFFFFF;" version="1.1" viewBox="0 0 608 1765" width="608px" zoomAndPan="magnify"><?plantuml 1.2026.3beta6?><defs/><g><g class="title" data-source-line="1"><text fill="#000000" font-family="sans-serif" font-size="14" font-weight="700" lengthAdjust="spacing" textLength="498.9551" x="53.6313" y="32.9951">MindForge - Mind Map Generation Workflow (Activity Diagram)</text></g><ellipse cx="239.2144" cy="62.2969" fill="#222222" rx="10" ry="10" style="stroke:#222222;stroke-width:1;"/><rect fill="none" height="82.2656" style="stroke:#000000;stroke-width:1.5;" width="204.3203" x="137.0542" y="82.2969"/><path d="M284.4702,82.2969 L284.4702,91.5938 L274.4702,101.5938 L137.0542,101.5938" fill="none" style="stroke:#000000;stroke-width:1.5;"/><text fill="#000000" font-family="sans-serif" font-size="14" lengthAdjust="spacing" textLength="137.416" x="140.0542" y="96.292">Frontend (React UI)</text><rect fill="#F1F1F1" height="33.9688" rx="12.5" ry="12.5" style="stroke:#181818;stroke-width:0.5;" width="184.3203" x="147.0542" y="118.5938"/><text fill="#000000" font-family="sans-serif" font-size="12" lengthAdjust="spacing" textLength="164.3203" x="157.0542" y="139.7324">User enters raw text / topic</text><rect fill="none" height="1264.415" style="stroke:#000000;stroke-width:1.5;" width="572.2178" x="16" y="174.5625"/><path d="M229.0273,174.5625 L229.0273,183.8594 L219.0273,193.8594 L16,193.8594" fill="none" style="stroke:#000000;stroke-width:1.5;"/><text fill="#000000" font-family="sans-serif" font-size="14" lengthAdjust="spacing" textLength="203.0273" x="19" y="188.5576">Backend (FastAPI + Pipeline)</text><rect fill="#F1F1F1" height="33.9688" rx="12.5" ry="12.5" style="stroke:#181818;stroke-width:0.5;" width="147.2363" x="165.5962" y="210.8594"/><text fill="#000000" font-family="sans-serif" font-size="12" lengthAdjust="spacing" textLength="127.2363" x="175.5962" y="231.998">Calculate word count</text><polygon fill="#F1F1F1" points="189.3706,264.8281,289.0581,264.8281,301.0581,276.8281,289.0581,288.8281,189.3706,288.8281,177.3706,276.8281,189.3706,264.8281" style="stroke:#181818;stroke-width:0.5;"/><text fill="#000000" font-family="sans-serif" font-size="11" lengthAdjust="spacing" textLength="99.6875" x="189.3706" y="280.6362">Word count &lt; 10?</text><text fill="#000000" font-family="sans-serif" font-size="11" lengthAdjust="spacing" textLength="65.1675" x="112.2031" y="274.2339">Yes - Vague</text><text fill="#000000" font-family="sans-serif" font-size="11" lengthAdjust="spacing" textLength="72.0747" x="301.0581" y="274.2339">No - Detailed</text><rect fill="#F1F1F1" height="33.9688" rx="12.5" ry="12.5" style="stroke:#181818;stroke-width:0.5;" width="146.4629" x="66.2822" y="298.8281"/><text fill="#000000" font-family="sans-serif" font-size="12" lengthAdjust="spacing" textLength="126.4629" x="76.2822" y="319.9668">Invoke ClarifierAgent</text><rect fill="#F1F1F1" height="33.9688" rx="12.5" ry="12.5" style="stroke:#181818;stroke-width:0.5;" width="211.8184" x="33.6045" y="352.7969"/><text fill="#000000" font-family="sans-serif" font-size="12" lengthAdjust="spacing" textLength="191.8184" x="43.6045" y="373.9355">Generate clarification questions</text><rect fill="none" height="136.2344" style="stroke:#000000;stroke-width:1.5;" width="191.9922" x="43.5176" y="396.7656"/><path d="M190.9336,396.7656 L190.9336,406.0625 L180.9336,416.0625 L43.5176,416.0625" fill="none" style="stroke:#000000;stroke-width:1.5;"/><text fill="#000000" font-family="sans-serif" font-size="14" lengthAdjust="spacing" textLength="137.416" x="46.5176" y="410.7607">Frontend (React UI)</text><rect fill="#F1F1F1" height="33.9688" rx="12.5" ry="12.5" style="stroke:#181818;stroke-width:0.5;" width="171.9922" x="53.5176" y="433.0625"/><text fill="#000000" font-family="sans-serif" font-size="12" lengthAdjust="spacing" textLength="151.9922" x="63.5176" y="454.2012">Display questions to user</text><rect fill="#F1F1F1" height="33.9688" rx="12.5" ry="12.5" style="stroke:#181818;stroke-width:0.5;" width="150.9688" x="64.0293" y="487.0313"/><text fill="#000000" font-family="sans-serif" font-size="12" lengthAdjust="spacing" textLength="130.9688" x="74.0293" y="508.1699">Wait for user answers</text><rect fill="none" height="82.2656" style="stroke:#000000;stroke-width:1.5;" width="223.0273" x="28" y="543.8018"/><path d="M241.0273,543.8018 L241.0273,553.0986 L231.0273,563.0986 L28,563.0986" fill="none" style="stroke:#000000;stroke-width:1.5;"/><text fill="#000000" font-family="sans-serif" font-size="14" lengthAdjust="spacing" textLength="203.0273" x="31" y="557.7969">Backend (FastAPI + Pipeline)</text><rect fill="#F1F1F1" height="33.9688" rx="12.5" ry="12.5" style="stroke:#181818;stroke-width:0.5;" width="150.916" x="64.0557" y="580.0986"/><text fill="#000000" font-family="sans-serif" font-size="12" lengthAdjust="spacing" textLength="130.916" x="74.0557" y="601.2373">Receive user answers</text><rect fill="#F1F1F1" height="33.9688" rx="12.5" ry="12.5" style="stroke:#181818;stroke-width:0.5;" width="135.7754" x="271.0273" y="298.8281"/><text fill="#000000" font-family="sans-serif" font-size="12" lengthAdjust="spacing" textLength="115.7754" x="281.0273" y="319.9668">Proceed to pipeline</text><polygon fill="#F1F1F1" points="239.2144,632.0674,251.2144,644.0674,239.2144,656.0674,227.2144,644.0674,239.2144,632.0674" style="stroke:#181818;stroke-width:0.5;"/><rect fill="none" height="760.9102" style="stroke:#000000;stroke-width:1.5;" width="438.7036" x="139.5142" y="666.0674"/><path d="M289.7739,666.0674 L289.7739,675.3643 L279.7739,685.3643 L139.5142,685.3643" fill="none" style="stroke:#000000;stroke-width:1.5;"/><text fill="#000000" font-family="sans-serif" font-size="14" lengthAdjust="spacing" textLength="140.2598" x="142.5142" y="680.0625">Multi-Agent Pipeline</text><rect fill="#F1F1F1" height="47.9375" rx="12.5" ry="12.5" style="stroke:#181818;stroke-width:0.5;" width="104.7852" x="186.8218" y="702.3643"/><text fill="#000000" font-family="sans-serif" font-size="12" lengthAdjust="spacing" textLength="84.7852" x="196.8218" y="723.5029">Planner Agent</text><text fill="#000000" font-family="sans-serif" font-size="12" lengthAdjust="spacing" textLength="78.8438" x="196.8218" y="737.4717">(Create Plan)</text><rect fill="#F1F1F1" height="47.9375" rx="12.5" ry="12.5" style="stroke:#181818;stroke-width:0.5;" width="120.3535" x="179.0376" y="770.3018"/><text fill="#000000" font-family="sans-serif" font-size="12" lengthAdjust="spacing" textLength="100.3535" x="189.0376" y="791.4404">Structurer Agent</text><text fill="#000000" font-family="sans-serif" font-size="12" lengthAdjust="spacing" textLength="98.8008" x="189.0376" y="805.4092">(Generate JSON)</text><rect fill="#F1F1F1" height="33.9688" rx="12.5" ry="12.5" style="stroke:#181818;stroke-width:0.5;" width="159.4004" x="159.5142" y="886.6416"/><text fill="#000000" font-family="sans-serif" font-size="12" lengthAdjust="spacing" textLength="139.4004" x="169.5142" y="907.7803">Retry Structurer (once)</text><rect fill="#F1F1F1" height="33.9688" rx="12.5" ry="12.5" style="stroke:#181818;stroke-width:0.5;" width="102.998" x="187.7153" y="989.0127"/><text fill="#000000" font-family="sans-serif" font-size="12" lengthAdjust="spacing" textLength="82.998" x="197.7153" y="1010.1514">Abort process</text><ellipse cx="239.2144" cy="1062.4971" fill="none" rx="11" ry="11" style="stroke:#222222;stroke-width:1;"/><ellipse cx="239.2144" cy="1062.4971" fill="#222222" rx="6" ry="6" style="stroke:#222222;stroke-width:1;"/><polygon fill="#F1F1F1" points="204.4312,940.6104,273.9976,940.6104,285.9976,952.6104,273.9976,964.6104,204.4312,964.6104,192.4312,952.6104,204.4312,940.6104" style="stroke:#181818;stroke-width:0.5;"/><text fill="#000000" font-family="sans-serif" font-size="11" lengthAdjust="spacing" textLength="19.2178" x="243.2144" y="974.8208">Yes</text><text fill="#000000" font-family="sans-serif" font-size="11" lengthAdjust="spacing" textLength="69.5664" x="204.4312" y="956.4185">Retry failed?</text><polygon fill="#F1F1F1" points="191.3418,838.2393,287.0869,838.2393,299.0869,850.2393,287.0869,862.2393,191.3418,862.2393,179.3418,850.2393,191.3418,838.2393" style="stroke:#181818;stroke-width:0.5;"/><text fill="#000000" font-family="sans-serif" font-size="11" lengthAdjust="spacing" textLength="19.2178" x="243.2144" y="872.4497">Yes</text><text fill="#000000" font-family="sans-serif" font-size="11" lengthAdjust="spacing" textLength="95.7451" x="191.3418" y="854.0474">Structurer failed?</text><polygon fill="#F1F1F1" points="239.2144,1115.4971,251.2144,1127.4971,239.2144,1139.4971,227.2144,1127.4971,239.2144,1115.4971" style="stroke:#181818;stroke-width:0.5;"/><rect fill="#F1F1F1" height="47.9375" rx="12.5" ry="12.5" style="stroke:#181818;stroke-width:0.5;" width="137.3281" x="170.5503" y="1159.4971"/><text fill="#000000" font-family="sans-serif" font-size="12" lengthAdjust="spacing" textLength="93.5156" x="180.5503" y="1180.6357">Validator Agent</text><text fill="#000000" font-family="sans-serif" font-size="12" lengthAdjust="spacing" textLength="117.3281" x="180.5503" y="1194.6045">(Check &amp; Fix Rules)</text><path d="M330.4771,1223.7041 L330.4771,1247.4033 L310.4771,1251.4033 L330.4771,1255.4033 L330.4771,1279.1025 A0,0 0 0 0 330.4771,1279.1025 L568.2178,1279.1025 A0,0 0 0 0 568.2178,1279.1025 L568.2178,1233.7041 L558.2178,1223.7041 L330.4771,1223.7041 A0,0 0 0 0 330.4771,1223.7041" fill="#FEFFDD" style="stroke:#181818;stroke-width:0.5;"/><path d="M558.2178,1223.7041 L558.2178,1233.7041 L568.2178,1233.7041 L558.2178,1223.7041" fill="#FEFFDD" style="stroke:#181818;stroke-width:0.5;"/><text fill="#000000" font-family="sans-serif" font-size="13" lengthAdjust="spacing" textLength="91.5967" x="336.4771" y="1240.771">Optional step:</text><text fill="#000000" font-family="sans-serif" font-size="13" lengthAdjust="spacing" textLength="136.5889" x="336.4771" y="1255.9038">If error occurs &#8594; skip</text><text fill="#000000" font-family="sans-serif" font-size="13" lengthAdjust="spacing" textLength="216.7407" x="336.4771" y="1271.0366">and continue with last valid state</text><rect fill="#F1F1F1" height="47.9375" rx="12.5" ry="12.5" style="stroke:#181818;stroke-width:0.5;" width="142.5254" x="167.9517" y="1227.4346"/><text fill="#000000" font-family="sans-serif" font-size="12" lengthAdjust="spacing" textLength="96" x="177.9517" y="1248.5732">Enhancer Agent</text><text fill="#000000" font-family="sans-serif" font-size="12" lengthAdjust="spacing" textLength="122.5254" x="177.9517" y="1262.542">(Add Colors &amp; Icons)</text><rect fill="#F1F1F1" height="47.9375" rx="12.5" ry="12.5" style="stroke:#181818;stroke-width:0.5;" width="135.459" x="171.4849" y="1299.1025"/><text fill="#000000" font-family="sans-serif" font-size="12" lengthAdjust="spacing" textLength="90.9316" x="181.4849" y="1320.2412">Exporter Agent</text><text fill="#000000" font-family="sans-serif" font-size="12" lengthAdjust="spacing" textLength="115.459" x="181.4849" y="1334.21">(Miro JSON Format)</text><rect fill="#F1F1F1" height="47.9375" rx="12.5" ry="12.5" style="stroke:#181818;stroke-width:0.5;" width="148.0391" x="165.1948" y="1367.04"/><text fill="#000000" font-family="sans-serif" font-size="12" lengthAdjust="spacing" textLength="77.3203" x="175.1948" y="1388.1787">Tester Agent</text><text fill="#000000" font-family="sans-serif" font-size="12" lengthAdjust="spacing" textLength="128.0391" x="175.1948" y="1402.1475">(Quality Assessment)</text><rect fill="none" height="254.2031" style="stroke:#000000;stroke-width:1.5;" width="321.7715" x="69.7256" y="1448.9775"/><path d="M217.1416,1448.9775 L217.1416,1458.2744 L207.1416,1468.2744 L69.7256,1468.2744" fill="none" style="stroke:#000000;stroke-width:1.5;"/><text fill="#000000" font-family="sans-serif" font-size="14" lengthAdjust="spacing" textLength="137.416" x="72.7256" y="1462.9727">Frontend (React UI)</text><rect fill="#F1F1F1" height="33.9688" rx="12.5" ry="12.5" style="stroke:#181818;stroke-width:0.5;" width="197.5156" x="140.4565" y="1485.2744"/><text fill="#000000" font-family="sans-serif" font-size="12" lengthAdjust="spacing" textLength="177.5156" x="150.4565" y="1506.4131">Render Mind Map (D3.js SVG)</text><rect fill="#F1F1F1" height="33.9688" rx="12.5" ry="12.5" style="stroke:#181818;stroke-width:0.5;" width="155.0586" x="161.6851" y="1539.2432"/><text fill="#000000" font-family="sans-serif" font-size="12" lengthAdjust="spacing" textLength="135.0586" x="171.6851" y="1560.3818">Display Quality Report</text><polygon fill="#F1F1F1" points="205.0811,1593.2119,273.3477,1593.2119,285.3477,1605.2119,273.3477,1617.2119,205.0811,1617.2119,193.0811,1605.2119,205.0811,1593.2119" style="stroke:#181818;stroke-width:0.5;"/><text fill="#000000" font-family="sans-serif" font-size="11" lengthAdjust="spacing" textLength="68.2666" x="205.0811" y="1609.02">User action?</text><text fill="#000000" font-family="sans-serif" font-size="11" lengthAdjust="spacing" textLength="54.6777" x="138.4033" y="1602.6177">Download</text><text fill="#000000" font-family="sans-serif" font-size="11" lengthAdjust="spacing" textLength="31.2222" x="285.3477" y="1602.6177">Reset</text><rect fill="#F1F1F1" height="33.9688" rx="12.5" ry="12.5" style="stroke:#181818;stroke-width:0.5;" width="148.0918" x="89.7256" y="1627.2119"/><text fill="#000000" font-family="sans-serif" font-size="12" lengthAdjust="spacing" textLength="128.0918" x="99.7256" y="1648.3506">Download PDF / JSON</text><rect fill="#F1F1F1" height="33.9688" rx="12.5" ry="12.5" style="stroke:#181818;stroke-width:0.5;" width="113.6797" x="257.8174" y="1627.2119"/><text fill="#000000" font-family="sans-serif" font-size="12" lengthAdjust="spacing" textLength="93.6797" x="267.8174" y="1648.3506">Reset Workflow</text><polygon fill="#F1F1F1" points="239.2144,1667.1807,251.2144,1679.1807,239.2144,1691.1807,227.2144,1679.1807,239.2144,1667.1807" style="stroke:#181818;stroke-width:0.5;"/><ellipse cx="239.2144" cy="1734.1807" fill="none" rx="11" ry="11" style="stroke:#222222;stroke-width:1;"/><ellipse cx="239.2144" cy="1734.1807" fill="#222222" rx="6" ry="6" style="stroke:#222222;stroke-width:1;"/><line style="stroke:#181818;stroke-width:1;" x1="239.2144" x2="239.2144" y1="72.2969" y2="118.5938"/><polygon fill="#181818" points="235.2144,108.5938,239.2144,118.5938,243.2144,108.5938,239.2144,112.5938" style="stroke:#181818;stroke-width:1;"/><line style="stroke:#181818;stroke-width:1;" x1="139.5137" x2="139.5137" y1="332.7969" y2="352.7969"/><polygon fill="#181818" points="135.5137,342.7969,139.5137,352.7969,143.5137,342.7969,139.5137,346.7969" style="stroke:#181818;stroke-width:1;"/><line style="stroke:#181818;stroke-width:1;" x1="139.5137" x2="139.5137" y1="467.0313" y2="487.0313"/><polygon fill="#181818" points="135.5137,477.0313,139.5137,487.0313,143.5137,477.0313,139.5137,481.0313" style="stroke:#181818;stroke-width:1;"/><line style="stroke:#181818;stroke-width:1;" x1="139.5137" x2="139.5137" y1="386.7656" y2="433.0625"/><polygon fill="#181818" points="135.5137,423.0625,139.5137,433.0625,143.5137,423.0625,139.5137,427.0625" style="stroke:#181818;stroke-width:1;"/><line style="stroke:#181818;stroke-width:1;" x1="139.5137" x2="139.5137" y1="521" y2="580.0986"/><polygon fill="#181818" points="135.5137,570.0986,139.5137,580.0986,143.5137,570.0986,139.5137,574.0986" style="stroke:#181818;stroke-width:1;"/><line style="stroke:#181818;stroke-width:1;" x1="177.3706" x2="139.5137" y1="276.8281" y2="276.8281"/><line style="stroke:#181818;stroke-width:1;" x1="139.5137" x2="139.5137" y1="276.8281" y2="298.8281"/><polygon fill="#181818" points="135.5137,288.8281,139.5137,298.8281,143.5137,288.8281,139.5137,292.8281" style="stroke:#181818;stroke-width:1;"/><line style="stroke:#181818;stroke-width:1;" x1="301.0581" x2="338.915" y1="276.8281" y2="276.8281"/><line style="stroke:#181818;stroke-width:1;" x1="338.915" x2="338.915" y1="276.8281" y2="298.8281"/><polygon fill="#181818" points="334.915,288.8281,338.915,298.8281,342.915,288.8281,338.915,292.8281" style="stroke:#181818;stroke-width:1;"/><line style="stroke:#181818;stroke-width:1;" x1="139.5137" x2="139.5137" y1="614.0674" y2="644.0674"/><line style="stroke:#181818;stroke-width:1;" x1="139.5137" x2="227.2144" y1="644.0674" y2="644.0674"/><polygon fill="#181818" points="217.2144,640.0674,227.2144,644.0674,217.2144,648.0674,221.2144,644.0674" style="stroke:#181818;stroke-width:1;"/><line style="stroke:#181818;stroke-width:1;" x1="338.915" x2="338.915" y1="332.7969" y2="644.0674"/><line style="stroke:#181818;stroke-width:1;" x1="338.915" x2="251.2144" y1="644.0674" y2="644.0674"/><polygon fill="#181818" points="261.2144,640.0674,251.2144,644.0674,261.2144,648.0674,257.2144,644.0674" style="stroke:#181818;stroke-width:1;"/><line style="stroke:#181818;stroke-width:1;" x1="239.2144" x2="239.2144" y1="244.8281" y2="264.8281"/><polygon fill="#181818" points="235.2144,254.8281,239.2144,264.8281,243.2144,254.8281,239.2144,258.8281" style="stroke:#181818;stroke-width:1;"/><line style="stroke:#181818;stroke-width:1;" x1="239.2144" x2="239.2144" y1="750.3018" y2="770.3018"/><polygon fill="#181818" points="235.2144,760.3018,239.2144,770.3018,243.2144,760.3018,239.2144,764.3018" style="stroke:#181818;stroke-width:1;"/><line style="stroke:#181818;stroke-width:1;" x1="239.2144" x2="239.2144" y1="1022.9814" y2="1051.4971"/><polygon fill="#181818" points="235.2144,1041.4971,239.2144,1051.4971,243.2144,1041.4971,239.2144,1045.4971" style="stroke:#181818;stroke-width:1;"/><line style="stroke:#181818;stroke-width:1;" x1="239.2144" x2="239.2144" y1="964.6104" y2="989.0127"/><polygon fill="#181818" points="235.2144,979.0127,239.2144,989.0127,243.2144,979.0127,239.2144,983.0127" style="stroke:#181818;stroke-width:1;"/><line style="stroke:#181818;stroke-width:1;" x1="285.9976" x2="300.7134" y1="952.6104" y2="952.6104"/><polygon fill="#181818" points="296.7134,1021.4971,300.7134,1031.4971,304.7134,1021.4971,300.7134,1025.4971" style="stroke:#181818;stroke-width:1;"/><line style="stroke:#181818;stroke-width:1;" x1="300.7134" x2="300.7134" y1="952.6104" y2="1095.4971"/><line style="stroke:#181818;stroke-width:1;" x1="300.7134" x2="239.2144" y1="1095.4971" y2="1095.4971"/><line style="stroke:#181818;stroke-width:1;" x1="239.2144" x2="239.2144" y1="1095.4971" y2="1115.4971"/><polygon fill="#181818" points="235.2144,1105.4971,239.2144,1115.4971,243.2144,1105.4971,239.2144,1109.4971" style="stroke:#181818;stroke-width:1;"/><line style="stroke:#181818;stroke-width:1;" x1="239.2144" x2="239.2144" y1="920.6104" y2="940.6104"/><polygon fill="#181818" points="235.2144,930.6104,239.2144,940.6104,243.2144,930.6104,239.2144,934.6104" style="stroke:#181818;stroke-width:1;"/><line style="stroke:#181818;stroke-width:1;" x1="239.2144" x2="239.2144" y1="862.2393" y2="886.6416"/><polygon fill="#181818" points="235.2144,876.6416,239.2144,886.6416,243.2144,876.6416,239.2144,880.6416" style="stroke:#181818;stroke-width:1;"/><line style="stroke:#181818;stroke-width:1;" x1="299.0869" x2="328.9146" y1="850.2393" y2="850.2393"/><polygon fill="#181818" points="324.9146,981.0127,328.9146,991.0127,332.9146,981.0127,328.9146,985.0127" style="stroke:#181818;stroke-width:1;"/><line style="stroke:#181818;stroke-width:1;" x1="328.9146" x2="328.9146" y1="850.2393" y2="1127.4971"/><line style="stroke:#181818;stroke-width:1;" x1="328.9146" x2="251.2144" y1="1127.4971" y2="1127.4971"/><polygon fill="#181818" points="261.2144,1123.4971,251.2144,1127.4971,261.2144,1131.4971,257.2144,1127.4971" style="stroke:#181818;stroke-width:1;"/><line style="stroke:#181818;stroke-width:1;" x1="239.2144" x2="239.2144" y1="818.2393" y2="838.2393"/><polygon fill="#181818" points="235.2144,828.2393,239.2144,838.2393,243.2144,828.2393,239.2144,832.2393" style="stroke:#181818;stroke-width:1;"/><line style="stroke:#181818;stroke-width:1;" x1="239.2144" x2="239.2144" y1="1139.4971" y2="1159.4971"/><polygon fill="#181818" points="235.2144,1149.4971,239.2144,1159.4971,243.2144,1149.4971,239.2144,1153.4971" style="stroke:#181818;stroke-width:1;"/><line style="stroke:#181818;stroke-width:1;" x1="239.2144" x2="239.2144" y1="1207.4346" y2="1227.4346"/><polygon fill="#181818" points="235.2144,1217.4346,239.2144,1227.4346,243.2144,1217.4346,239.2144,1221.4346" style="stroke:#181818;stroke-width:1;"/><line style="stroke:#181818;stroke-width:1;" x1="239.2144" x2="239.2144" y1="1275.3721" y2="1299.1025"/><polygon fill="#181818" points="235.2144,1289.1025,239.2144,1299.1025,243.2144,1289.1025,239.2144,1293.1025" style="stroke:#181818;stroke-width:1;"/><line style="stroke:#181818;stroke-width:1;" x1="239.2144" x2="239.2144" y1="1347.04" y2="1367.04"/><polygon fill="#181818" points="235.2144,1357.04,239.2144,1367.04,243.2144,1357.04,239.2144,1361.04" style="stroke:#181818;stroke-width:1;"/><line style="stroke:#181818;stroke-width:1;" x1="239.2144" x2="239.2144" y1="656.0674" y2="702.3643"/><polygon fill="#181818" points="235.2144,692.3643,239.2144,702.3643,243.2144,692.3643,239.2144,696.3643" style="stroke:#181818;stroke-width:1;"/><line style="stroke:#181818;stroke-width:1;" x1="239.2144" x2="239.2144" y1="152.5625" y2="210.8594"/><polygon fill="#181818" points="235.2144,200.8594,239.2144,210.8594,243.2144,200.8594,239.2144,204.8594" style="stroke:#181818;stroke-width:1;"/><line style="stroke:#181818;stroke-width:1;" x1="239.2144" x2="239.2144" y1="1519.2432" y2="1539.2432"/><polygon fill="#181818" points="235.2144,1529.2432,239.2144,1539.2432,243.2144,1529.2432,239.2144,1533.2432" style="stroke:#181818;stroke-width:1;"/><line style="stroke:#181818;stroke-width:1;" x1="193.0811" x2="163.7715" y1="1605.2119" y2="1605.2119"/><line style="stroke:#181818;stroke-width:1;" x1="163.7715" x2="163.7715" y1="1605.2119" y2="1627.2119"/><polygon fill="#181818" points="159.7715,1617.2119,163.7715,1627.2119,167.7715,1617.2119,163.7715,1621.2119" style="stroke:#181818;stroke-width:1;"/><line style="stroke:#181818;stroke-width:1;" x1="285.3477" x2="314.6572" y1="1605.2119" y2="1605.2119"/><line style="stroke:#181818;stroke-width:1;" x1="314.6572" x2="314.6572" y1="1605.2119" y2="1627.2119"/><polygon fill="#181818" points="310.6572,1617.2119,314.6572,1627.2119,318.6572,1617.2119,314.6572,1621.2119" style="stroke:#181818;stroke-width:1;"/><line style="stroke:#181818;stroke-width:1;" x1="163.7715" x2="163.7715" y1="1661.1807" y2="1679.1807"/><line style="stroke:#181818;stroke-width:1;" x1="163.7715" x2="227.2144" y1="1679.1807" y2="1679.1807"/><polygon fill="#181818" points="217.2144,1675.1807,227.2144,1679.1807,217.2144,1683.1807,221.2144,1679.1807" style="stroke:#181818;stroke-width:1;"/><line style="stroke:#181818;stroke-width:1;" x1="314.6572" x2="314.6572" y1="1661.1807" y2="1679.1807"/><line style="stroke:#181818;stroke-width:1;" x1="314.6572" x2="251.2144" y1="1679.1807" y2="1679.1807"/><polygon fill="#181818" points="261.2144,1675.1807,251.2144,1679.1807,261.2144,1683.1807,257.2144,1679.1807" style="stroke:#181818;stroke-width:1;"/><line style="stroke:#181818;stroke-width:1;" x1="239.2144" x2="239.2144" y1="1573.2119" y2="1593.2119"/><polygon fill="#181818" points="235.2144,1583.2119,239.2144,1593.2119,243.2144,1583.2119,239.2144,1587.2119" style="stroke:#181818;stroke-width:1;"/><line style="stroke:#181818;stroke-width:1;" x1="239.2144" x2="239.2144" y1="1414.9775" y2="1485.2744"/><polygon fill="#181818" points="235.2144,1475.2744,239.2144,1485.2744,243.2144,1475.2744,239.2144,1479.2744" style="stroke:#181818;stroke-width:1;"/><line style="stroke:#181818;stroke-width:1;" x1="239.2144" x2="239.2144" y1="1691.1807" y2="1723.1807"/><polygon fill="#181818" points="235.2144,1713.1807,239.2144,1723.1807,243.2144,1713.1807,239.2144,1717.1807" style="stroke:#181818;stroke-width:1;"/><?plantuml-src fLN9Rjim4BthAmOv93AAT45lSOj2yPAgZPVATe82lR3qs6RDa2f9sGaAN_i1_SH-IKUK8zDjDg2yI1e-pRnvCnmwuIH2JwXfLvivmh5_XnxBuGmL6kQ4Ld2fpN8czHhYX3kn4ku6seBD3RjgH95rpBWeEdfxvugEe9iD-kDElmqfFRAaDKu7_NlXEJaJFkX1rsZbaDZ46JBkO98s3k171BHE9XOD86qR2uQjmU6rWnVWT2vuCzeyHESqQNqisPmFpjBMKtYSChxqDBhCkcIOmZCOYXobKEW9LOnQJF92CeUmrcOAN1VADQizCOFuiZR26tZrybq3t08Ln9_HakWNR5vWmuEzirIjz1AX9PaHCu4ccMFfhTxVrWQ1LmXUrUbxWRPyiTl0vNgQeBNdjh2vP3SxLwGf5AHsSnztoOI3cJP-3vYoQoh53hEvay1ZIkv5o92ZME730L1QXBYlISCsEYOaJWCPXqPpn6cPGhwDKtaW4c8MLIxkwm2_1xt9-JWzJiuw_J4Cqs7dFErt7lqjIBbNI2UEVVtgNEkcgKXAfgYQu35VLDmoM5QsD3U2EfwCd2cuAqm0hTlWmsZG3y5bnmNucHScxBd6trexSmF17x5M71lxDI-TLi37_7cVoLTj7EHb2Qnj_hDlwQpk6QkQx7_jihzWKaoPqu5E2-HBE8Ikk8QiaCGXLAkZ5enIsC6JwHHQMceQ68UGSkhi4AyqgMZ4VE5gqo0lAyWaCSNyf3QdCq1ZY8Vcl21dlt_-0hiKkroOAW-wSa8LD0k4Mu2aReTLcG3vedA5IVh88U_hd6GBUFU4qRw-G1FwYhczBCTqI0FifuA2q71Eh2NDhyXuYzuyF1C7a_5mGWt-FXbr_dSqPsGdJlKz4hTVF_zcONHnjksdUiRSqismp3aObdwwar-ALJTPMw-Lr2mythSc6BQxDFnBaPh1LCZGeWlW_hk-oy91i2blCPt_0G00?></g></svg>