<svg xmlns="http://www.w3.org/2000/svg" xmlns:xlink="http://www.w3.org/1999/xlink" contentStyleType="text/css" data-diagram-type="CLASS" height="569px" preserveAspectRatio="none" style="width:2186px;height:569px;background:#FFFFFF;" version="1.1" viewBox="0 0 2186 569" width="2186px" zoomAndPan="magnify"><?plantuml 1.2026.3beta6?><defs/><g><g class="title" data-source-line="1"><text fill="#000000" font-family="sans-serif" font-size="14" font-weight="700" lengthAdjust="spacing" textLength="426.6719" x="876.4733" y="22.9951">MindForge - Multi-Agent Architecture (Class Diagram)</text></g><!--class BaseAgent--><g class="entity" data-qualified-name="BaseAgent" data-source-line="6" id="ent0002"><rect fill="#F1F1F1" height="162.0781" rx="2.5" ry="2.5" style="stroke:#181818;stroke-width:0.5;" width="240.2998" x="994.16" y="218.1869"/><ellipse cx="1072.2948" cy="234.1869" fill="#A9DCDF" rx="11" ry="11" style="stroke:#181818;stroke-width:1;"/><path d="M1072.4041,229.5306 L1071.2479,234.6088 L1073.576,234.6088 L1072.4041,229.5306 Z M1070.9198,227.2963 L1073.9041,227.2963 L1077.2635,239.6869 L1074.8104,239.6869 L1074.0448,236.6244 L1070.7635,236.6244 L1070.0135,239.6869 L1067.576,239.6869 L1070.9198,227.2963 Z " fill="#000000"/><text fill="#000000" font-family="sans-serif" font-size="14" font-style="italic" lengthAdjust="spacing" textLength="75.5303" x="1092.7948" y="239.0336">BaseAgent</text><line style="stroke:#181818;stroke-width:0.5;" x1="995.16" x2="1233.4598" y1="250.1869" y2="250.1869"/><g data-visibility-modifier="PRIVATE_FIELD"><rect fill="none" height="6" style="stroke:#C82930;stroke-width:1;" width="6" x="1002.16" y="260.8353"/></g><text fill="#000000" font-family="sans-serif" font-size="14" lengthAdjust="spacing" textLength="67.4092" x="1014.16" y="267.182">name: str</text><g data-visibility-modifier="PRIVATE_FIELD"><rect fill="none" height="6" style="stroke:#C82930;stroke-width:1;" width="6" x="1002.16" y="277.1322"/></g><text fill="#000000" font-family="sans-serif" font-size="14" lengthAdjust="spacing" textLength="81.0674" x="1014.16" y="283.4789">api_key: str</text><g data-visibility-modifier="PRIVATE_FIELD"><rect fill="none" height="6" style="stroke:#C82930;stroke-width:1;" width="6" x="1002.16" y="293.4291"/></g><text fill="#000000" font-family="sans-serif" font-size="14" lengthAdjust="spacing" textLength="71.2988" x="1014.16" y="299.7757">model: str</text><g data-visibility-modifier="PRIVATE_FIELD"><rect fill="none" height="6" style="stroke:#C82930;stroke-width:1;" width="6" x="1002.16" y="309.7259"/></g><text fill="#000000" font-family="sans-serif" font-size="14" lengthAdjust="spacing" textLength="86.5977" x="1014.16" y="316.0726">base_url: str</text><line style="stroke:#181818;stroke-width:0.5;" x1="995.16" x2="1233.4598" y1="323.3744" y2="323.3744"/><g data-visibility-modifier="PUBLIC_METHOD"><ellipse cx="1005.16" cy="337.0228" fill="#84BE84" rx="3" ry="3" style="stroke:#038048;stroke-width:1;"/></g><text fill="#000000" font-family="sans-serif" font-size="14" lengthAdjust="spacing" textLength="135.167" x="1014.16" y="340.3695">run(input: str): Dict</text><g data-visibility-modifier="PUBLIC_METHOD"><ellipse cx="1005.16" cy="353.3197" fill="#84BE84" rx="3" ry="3" style="stroke:#038048;stroke-width:1;"/></g><text fill="#000000" font-family="sans-serif" font-size="14" lengthAdjust="spacing" textLength="170.0303" x="1014.16" y="356.6664">call_llm(prompt: str): str</text><g data-visibility-modifier="PUBLIC_METHOD"><ellipse cx="1005.16" cy="369.6166" fill="#84BE84" rx="3" ry="3" style="stroke:#038048;stroke-width:1;"/></g><text fill="#000000" font-family="sans-serif" font-size="14" lengthAdjust="spacing" textLength="214.2998" x="1014.16" y="372.9632">parse_json(response: str): Dict</text></g><g class="entity" data-qualified-name="GMN3" data-source-line="18" id="ent0004"><path d="M1269.78,263.9669 L1269.78,295.2269 L1234.72,299.2269 L1269.78,303.2269 L1269.78,334.4981 A0,0 0 0 0 1269.78,334.4981 L1506.8352,334.4981 A0,0 0 0 0 1506.8352,334.4981 L1506.8352,273.9669 L1496.8352,263.9669 L1269.78,263.9669 A0,0 0 0 0 1269.78,263.9669" fill="#FEFFDD" style="stroke:#181818;stroke-width:0.5;"/><path d="M1496.8352,263.9669 L1496.8352,273.9669 L1506.8352,273.9669 L1496.8352,263.9669" fill="#FEFFDD" style="stroke:#181818;stroke-width:0.5;"/><text fill="#000000" font-family="sans-serif" font-size="13" lengthAdjust="spacing" textLength="56.9956" x="1275.78" y="281.0338">Handles:</text><text fill="#000000" font-family="sans-serif" font-size="13" lengthAdjust="spacing" textLength="138.3662" x="1275.78" y="296.1666">- LLM API calls (Groq)</text><text fill="#000000" font-family="sans-serif" font-size="13" lengthAdjust="spacing" textLength="208.6284" x="1275.78" y="311.2994">- Retry with exponential backoff</text><text fill="#000000" font-family="sans-serif" font-size="13" lengthAdjust="spacing" textLength="216.0552" x="1275.78" y="326.4322">- JSON extraction from responses</text></g><!--class PlannerAgent--><g class="entity" data-qualified-name="PlannerAgent" data-source-line="28" id="ent0006"><rect fill="#F1F1F1" height="64.2969" rx="2.5" ry="2.5" style="stroke:#181818;stroke-width:0.5;" width="161.167" x="1266.72" y="473.8669"/><ellipse cx="1297.3355" cy="489.8669" fill="#ADD1B2" rx="11" ry="11" style="stroke:#181818;stroke-width:1;"/><path d="M1300.3043,495.5075 Q1299.7262,495.8044 1299.0855,495.945 Q1298.4449,496.1013 1297.7418,496.1013 Q1295.2418,496.1013 1293.9137,494.4606 Q1292.6012,492.8044 1292.6012,489.6794 Q1292.6012,486.5544 1293.9137,484.8981 Q1295.2418,483.2419 1297.7418,483.2419 Q1298.4449,483.2419 1299.0855,483.3981 Q1299.7418,483.5544 1300.3043,483.8513 L1300.3043,486.57 Q1299.6793,485.9919 1299.0855,485.7263 Q1298.4918,485.445 1297.8668,485.445 Q1296.523,485.445 1295.8355,486.5231 Q1295.148,487.5856 1295.148,489.6794 Q1295.148,491.7731 1295.8355,492.8513 Q1296.523,493.9138 1297.8668,493.9138 Q1298.4918,493.9138 1299.0855,493.6481 Q1299.6793,493.3669 1300.3043,492.7888 L1300.3043,495.5075 Z " fill="#000000"/><text fill="#000000" font-family="sans-serif" font-size="14" lengthAdjust="spacing" textLength="94.4658" x="1314.8056" y="494.7136">PlannerAgent</text><line style="stroke:#181818;stroke-width:0.5;" x1="1267.72" x2="1426.887" y1="505.8669" y2="505.8669"/><line style="stroke:#181818;stroke-width:0.5;" x1="1267.72" x2="1426.887" y1="513.8669" y2="513.8669"/><g data-visibility-modifier="PUBLIC_METHOD"><ellipse cx="1277.72" cy="527.5153" fill="#84BE84" rx="3" ry="3" style="stroke:#038048;stroke-width:1;"/></g><text fill="#000000" font-family="sans-serif" font-size="14" lengthAdjust="spacing" textLength="135.167" x="1286.72" y="530.862">run(input: str): Dict</text></g><!--class StructurerAgent--><g class="entity" data-qualified-name="StructurerAgent" data-source-line="32" id="ent0007"><rect fill="#F1F1F1" height="64.2969" rx="2.5" ry="2.5" style="stroke:#181818;stroke-width:0.5;" width="164.7012" x="1066.96" y="473.8669"/><ellipse cx="1090.9925" cy="489.8669" fill="#ADD1B2" rx="11" ry="11" style="stroke:#181818;stroke-width:1;"/><path d="M1093.9613,495.5075 Q1093.3831,495.8044 1092.7425,495.945 Q1092.1019,496.1013 1091.3988,496.1013 Q1088.8988,496.1013 1087.5706,494.4606 Q1086.2581,492.8044 1086.2581,489.6794 Q1086.2581,486.5544 1087.5706,484.8981 Q1088.8988,483.2419 1091.3988,483.2419 Q1092.1019,483.2419 1092.7425,483.3981 Q1093.3988,483.5544 1093.9613,483.8513 L1093.9613,486.57 Q1093.3363,485.9919 1092.7425,485.7263 Q1092.1488,485.445 1091.5238,485.445 Q1090.18,485.445 1089.4925,486.5231 Q1088.805,487.5856 1088.805,489.6794 Q1088.805,491.7731 1089.4925,492.8513 Q1090.18,493.9138 1091.5238,493.9138 Q1092.1488,493.9138 1092.7425,493.6481 Q1093.3363,493.3669 1093.9613,492.7888 L1093.9613,495.5075 Z " fill="#000000"/><text fill="#000000" font-family="sans-serif" font-size="14" lengthAdjust="spacing" textLength="112.6289" x="1106.9997" y="494.7136">StructurerAgent</text><line style="stroke:#181818;stroke-width:0.5;" x1="1067.96" x2="1230.6612" y1="505.8669" y2="505.8669"/><line style="stroke:#181818;stroke-width:0.5;" x1="1067.96" x2="1230.6612" y1="513.8669" y2="513.8669"/><g data-visibility-modifier="PUBLIC_METHOD"><ellipse cx="1077.96" cy="527.5153" fill="#84BE84" rx="3" ry="3" style="stroke:#038048;stroke-width:1;"/></g><text fill="#000000" font-family="sans-serif" font-size="14" lengthAdjust="spacing" textLength="138.7012" x="1086.96" y="530.862">run(plan: Dict): Dict</text></g><!--class ValidatorAgent--><g class="entity" data-qualified-name="ValidatorAgent" data-source-line="36" id="ent0008"><rect fill="#F1F1F1" height="96.8906" rx="2.5" ry="2.5" style="stroke:#181818;stroke-width:0.5;" width="216.6133" x="7" y="457.5669"/><ellipse cx="58.731" cy="473.5669" fill="#ADD1B2" rx="11" ry="11" style="stroke:#181818;stroke-width:1;"/><path d="M61.6997,479.2075 Q61.1216,479.5044 60.481,479.645 Q59.8403,479.8013 59.1372,479.8013 Q56.6372,479.8013 55.3091,478.1606 Q53.9966,476.5044 53.9966,473.3794 Q53.9966,470.2544 55.3091,468.5981 Q56.6372,466.9419 59.1372,466.9419 Q59.8403,466.9419 60.481,467.0981 Q61.1372,467.2544 61.6997,467.5513 L61.6997,470.27 Q61.0747,469.6919 60.481,469.4263 Q59.8872,469.145 59.2622,469.145 Q57.9185,469.145 57.231,470.2231 Q56.5435,471.2856 56.5435,473.3794 Q56.5435,475.4731 57.231,476.5513 Q57.9185,477.6138 59.2622,477.6138 Q59.8872,477.6138 60.481,477.3481 Q61.0747,477.0669 61.6997,476.4888 L61.6997,479.2075 Z " fill="#000000"/><text fill="#000000" font-family="sans-serif" font-size="14" lengthAdjust="spacing" textLength="104.6514" x="79.231" y="478.4136">ValidatorAgent</text><line style="stroke:#181818;stroke-width:0.5;" x1="8" x2="222.6133" y1="489.5669" y2="489.5669"/><g data-visibility-modifier="PRIVATE_FIELD"><rect fill="none" height="6" style="stroke:#C82930;stroke-width:1;" width="6" x="15" y="500.2153"/></g><text fill="#000000" font-family="sans-serif" font-size="14" lengthAdjust="spacing" textLength="68.0654" x="27" y="506.562">rules: List</text><line style="stroke:#181818;stroke-width:0.5;" x1="8" x2="222.6133" y1="513.8638" y2="513.8638"/><g data-visibility-modifier="PUBLIC_METHOD"><ellipse cx="18" cy="527.5122" fill="#84BE84" rx="3" ry="3" style="stroke:#038048;stroke-width:1;"/></g><text fill="#000000" font-family="sans-serif" font-size="14" lengthAdjust="spacing" textLength="136.9443" x="27" y="530.8589">run(tree: Dict): Dict</text><g data-visibility-modifier="PUBLIC_METHOD"><ellipse cx="18" cy="543.8091" fill="#84BE84" rx="3" ry="3" style="stroke:#038048;stroke-width:1;"/></g><text fill="#000000" font-family="sans-serif" font-size="14" lengthAdjust="spacing" textLength="190.6133" x="27" y="547.1557">rule_check(tree: Dict): bool</text></g><!--class EnhancerAgent--><g class="entity" data-qualified-name="EnhancerAgent" data-source-line="42" id="ent0009"><rect fill="#F1F1F1" height="64.2969" rx="2.5" ry="2.5" style="stroke:#181818;stroke-width:0.5;" width="162.9443" x="670.83" y="473.8669"/><ellipse cx="696.3575" cy="489.8669" fill="#ADD1B2" rx="11" ry="11" style="stroke:#181818;stroke-width:1;"/><path d="M699.3263,495.5075 Q698.7482,495.8044 698.1075,495.945 Q697.4669,496.1013 696.7638,496.1013 Q694.2638,496.1013 692.9357,494.4606 Q691.6232,492.8044 691.6232,489.6794 Q691.6232,486.5544 692.9357,484.8981 Q694.2638,483.2419 696.7638,483.2419 Q697.4669,483.2419 698.1075,483.3981 Q698.7638,483.5544 699.3263,483.8513 L699.3263,486.57 Q698.7013,485.9919 698.1075,485.7263 Q697.5138,485.445 696.8888,485.445 Q695.545,485.445 694.8575,486.5231 Q694.17,487.5856 694.17,489.6794 Q694.17,491.7731 694.8575,492.8513 Q695.545,493.9138 696.8888,493.9138 Q697.5138,493.9138 698.1075,493.6481 Q698.7013,493.3669 699.3263,492.7888 L699.3263,495.5075 Z " fill="#000000"/><text fill="#000000" font-family="sans-serif" font-size="14" lengthAdjust="spacing" textLength="107.5498" x="712.697" y="494.7136">EnhancerAgent</text><line style="stroke:#181818;stroke-width:0.5;" x1="671.83" x2="832.7743" y1="505.8669" y2="505.8669"/><line style="stroke:#181818;stroke-width:0.5;" x1="671.83" x2="832.7743" y1="513.8669" y2="513.8669"/><g data-visibility-modifier="PUBLIC_METHOD"><ellipse cx="681.83" cy="527.5153" fill="#84BE84" rx="3" ry="3" style="stroke:#038048;stroke-width:1;"/></g><text fill="#000000" font-family="sans-serif" font-size="14" lengthAdjust="spacing" textLength="136.9443" x="690.83" y="530.862">run(tree: Dict): Dict</text></g><!--class RendererAgent--><g class="entity" data-qualified-name="RendererAgent" data-source-line="46" id="ent0010"><rect fill="#F1F1F1" height="64.2969" rx="2.5" ry="2.5" style="stroke:#181818;stroke-width:0.5;" width="162.9443" x="258.83" y="473.8669"/><ellipse cx="284.9297" cy="489.8669" fill="#ADD1B2" rx="11" ry="11" style="stroke:#181818;stroke-width:1;"/><path d="M287.8985,495.5075 Q287.3203,495.8044 286.6797,495.945 Q286.0391,496.1013 285.336,496.1013 Q282.836,496.1013 281.5078,494.4606 Q280.1953,492.8044 280.1953,489.6794 Q280.1953,486.5544 281.5078,484.8981 Q282.836,483.2419 285.336,483.2419 Q286.0391,483.2419 286.6797,483.3981 Q287.336,483.5544 287.8985,483.8513 L287.8985,486.57 Q287.2735,485.9919 286.6797,485.7263 Q286.086,485.445 285.461,485.445 Q284.1172,485.445 283.4297,486.5231 Q282.7422,487.5856 282.7422,489.6794 Q282.7422,491.7731 283.4297,492.8513 Q284.1172,493.9138 285.461,493.9138 Q286.086,493.9138 286.6797,493.6481 Q287.2735,493.3669 287.8985,492.7888 L287.8985,495.5075 Z " fill="#000000"/><text fill="#000000" font-family="sans-serif" font-size="14" lengthAdjust="spacing" textLength="106.2783" x="301.3963" y="494.7136">RendererAgent</text><line style="stroke:#181818;stroke-width:0.5;" x1="259.83" x2="420.7743" y1="505.8669" y2="505.8669"/><line style="stroke:#181818;stroke-width:0.5;" x1="259.83" x2="420.7743" y1="513.8669" y2="513.8669"/><g data-visibility-modifier="PUBLIC_METHOD"><ellipse cx="269.83" cy="527.5153" fill="#84BE84" rx="3" ry="3" style="stroke:#038048;stroke-width:1;"/></g><text fill="#000000" font-family="sans-serif" font-size="14" lengthAdjust="spacing" textLength="136.9443" x="278.83" y="530.862">run(tree: Dict): Dict</text></g><!--class ExporterAgent--><g class="entity" data-qualified-name="ExporterAgent" data-source-line="50" id="ent0011"><rect fill="#F1F1F1" height="80.5938" rx="2.5" ry="2.5" style="stroke:#181818;stroke-width:0.5;" width="179.8018" x="456.41" y="465.7169"/><ellipse cx="492.1843" cy="481.7169" fill="#ADD1B2" rx="11" ry="11" style="stroke:#181818;stroke-width:1;"/><path d="M495.153,487.3575 Q494.5749,487.6544 493.9343,487.795 Q493.2936,487.9513 492.5905,487.9513 Q490.0905,487.9513 488.7624,486.3106 Q487.4499,484.6544 487.4499,481.5294 Q487.4499,478.4044 488.7624,476.7481 Q490.0905,475.0919 492.5905,475.0919 Q493.2936,475.0919 493.9343,475.2481 Q494.5905,475.4044 495.153,475.7013 L495.153,478.42 Q494.528,477.8419 493.9343,477.5763 Q493.3405,477.295 492.7155,477.295 Q491.3718,477.295 490.6843,478.3731 Q489.9968,479.4356 489.9968,481.5294 Q489.9968,483.6231 490.6843,484.7013 Q491.3718,485.7638 492.7155,485.7638 Q493.3405,485.7638 493.9343,485.4981 Q494.528,485.2169 495.153,484.6388 L495.153,487.3575 Z " fill="#000000"/><text fill="#000000" font-family="sans-serif" font-size="14" lengthAdjust="spacing" textLength="101.6367" x="510.8008" y="486.5636">ExporterAgent</text><line style="stroke:#181818;stroke-width:0.5;" x1="457.41" x2="635.2118" y1="497.7169" y2="497.7169"/><line style="stroke:#181818;stroke-width:0.5;" x1="457.41" x2="635.2118" y1="505.7169" y2="505.7169"/><g data-visibility-modifier="PUBLIC_METHOD"><ellipse cx="467.41" cy="519.3653" fill="#84BE84" rx="3" ry="3" style="stroke:#038048;stroke-width:1;"/></g><text fill="#000000" font-family="sans-serif" font-size="14" lengthAdjust="spacing" textLength="136.9443" x="476.41" y="522.712">run(tree: Dict): Dict</text><g data-visibility-modifier="PUBLIC_METHOD"><ellipse cx="467.41" cy="535.6622" fill="#84BE84" rx="3" ry="3" style="stroke:#038048;stroke-width:1;"/></g><text fill="#000000" font-family="sans-serif" font-size="14" lengthAdjust="spacing" textLength="153.8018" x="476.41" y="539.0089">to_json(tree: Dict): str</text></g><!--class TesterAgent--><g class="entity" data-qualified-name="TesterAgent" data-source-line="55" id="ent0012"><rect fill="#F1F1F1" height="64.2969" rx="2.5" ry="2.5" style="stroke:#181818;stroke-width:0.5;" width="162.9443" x="868.83" y="473.8669"/><ellipse cx="904.1644" cy="489.8669" fill="#ADD1B2" rx="11" ry="11" style="stroke:#181818;stroke-width:1;"/><path d="M907.1331,495.5075 Q906.555,495.8044 905.9144,495.945 Q905.2738,496.1013 904.5706,496.1013 Q902.0706,496.1013 900.7425,494.4606 Q899.43,492.8044 899.43,489.6794 Q899.43,486.5544 900.7425,484.8981 Q902.0706,483.2419 904.5706,483.2419 Q905.2738,483.2419 905.9144,483.3981 Q906.5706,483.5544 907.1331,483.8513 L907.1331,486.57 Q906.5081,485.9919 905.9144,485.7263 Q905.3206,485.445 904.6956,485.445 Q903.3519,485.445 902.6644,486.5231 Q901.9769,487.5856 901.9769,489.6794 Q901.9769,491.7731 902.6644,492.8513 Q903.3519,493.9138 904.6956,493.9138 Q905.3206,493.9138 905.9144,493.6481 Q906.5081,493.3669 907.1331,492.7888 L907.1331,495.5075 Z " fill="#000000"/><text fill="#000000" font-family="sans-serif" font-size="14" lengthAdjust="spacing" textLength="85.7568" x="922.6831" y="494.7136">TesterAgent</text><line style="stroke:#181818;stroke-width:0.5;" x1="869.83" x2="1030.7743" y1="505.8669" y2="505.8669"/><line style="stroke:#181818;stroke-width:0.5;" x1="869.83" x2="1030.7743" y1="513.8669" y2="513.8669"/><g data-visibility-modifier="PUBLIC_METHOD"><ellipse cx="879.83" cy="527.5153" fill="#84BE84" rx="3" ry="3" style="stroke:#038048;stroke-width:1;"/></g><text fill="#000000" font-family="sans-serif" font-size="14" lengthAdjust="spacing" textLength="136.9443" x="888.83" y="530.862">run(tree: Dict): Dict</text></g><!--class ClarifierAgent--><g class="entity" data-qualified-name="ClarifierAgent" data-source-line="59" id="ent0013"><rect fill="#F1F1F1" height="64.2969" rx="2.5" ry="2.5" style="stroke:#181818;stroke-width:0.5;" width="157.7832" x="1487.42" y="473.8669"/><ellipse cx="1515.59" cy="489.8669" fill="#ADD1B2" rx="11" ry="11" style="stroke:#181818;stroke-width:1;"/><path d="M1518.5587,495.5075 Q1517.9806,495.8044 1517.34,495.945 Q1516.6993,496.1013 1515.9962,496.1013 Q1513.4962,496.1013 1512.1681,494.4606 Q1510.8556,492.8044 1510.8556,489.6794 Q1510.8556,486.5544 1512.1681,484.8981 Q1513.4962,483.2419 1515.9962,483.2419 Q1516.6993,483.2419 1517.34,483.3981 Q1517.9962,483.5544 1518.5587,483.8513 L1518.5587,486.57 Q1517.9337,485.9919 1517.34,485.7263 Q1516.7462,485.445 1516.1212,485.445 Q1514.7775,485.445 1514.09,486.5231 Q1513.4025,487.5856 1513.4025,489.6794 Q1513.4025,491.7731 1514.09,492.8513 Q1514.7775,493.9138 1516.1212,493.9138 Q1516.7462,493.9138 1517.34,493.6481 Q1517.9337,493.3669 1518.5587,492.7888 L1518.5587,495.5075 Z " fill="#000000"/><text fill="#000000" font-family="sans-serif" font-size="14" lengthAdjust="spacing" textLength="96.5166" x="1532.5166" y="494.7136">ClarifierAgent</text><line style="stroke:#181818;stroke-width:0.5;" x1="1488.42" x2="1644.2032" y1="505.8669" y2="505.8669"/><line style="stroke:#181818;stroke-width:0.5;" x1="1488.42" x2="1644.2032" y1="513.8669" y2="513.8669"/><g data-visibility-modifier="PUBLIC_METHOD"><ellipse cx="1498.42" cy="527.5153" fill="#84BE84" rx="3" ry="3" style="stroke:#038048;stroke-width:1;"/></g><text fill="#000000" font-family="sans-serif" font-size="14" lengthAdjust="spacing" textLength="131.7832" x="1507.42" y="530.862">run(input: str): List</text></g><!--class PipelineController--><g class="entity" data-qualified-name="PipelineController" data-source-line="79" id="ent0022"><rect fill="#F1F1F1" height="194.6719" rx="2.5" ry="2.5" style="stroke:#181818;stroke-width:0.5;" width="324.9219" x="369.85" y="201.8969"/><ellipse cx="465.9257" cy="217.8969" fill="#ADD1B2" rx="11" ry="11" style="stroke:#181818;stroke-width:1;"/><path d="M468.8944,223.5375 Q468.3163,223.8344 467.6757,223.975 Q467.0351,224.1313 466.3319,224.1313 Q463.8319,224.1313 462.5038,222.4906 Q461.1913,220.8344 461.1913,217.7094 Q461.1913,214.5844 462.5038,212.9281 Q463.8319,211.2719 466.3319,211.2719 Q467.0351,211.2719 467.6757,211.4281 Q468.3319,211.5844 468.8944,211.8813 L468.8944,214.6 Q468.2694,214.0219 467.6757,213.7563 Q467.0819,213.475 466.4569,213.475 Q465.1132,213.475 464.4257,214.5531 Q463.7382,215.6156 463.7382,217.7094 Q463.7382,219.8031 464.4257,220.8813 Q465.1132,221.9438 466.4569,221.9438 Q467.0819,221.9438 467.6757,221.6781 Q468.2694,221.3969 468.8944,220.8188 L468.8944,223.5375 Z " fill="#000000"/><text fill="#000000" font-family="sans-serif" font-size="14" lengthAdjust="spacing" textLength="124.2705" x="486.4257" y="222.7436">PipelineController</text><line style="stroke:#181818;stroke-width:0.5;" x1="370.85" x2="693.7719" y1="233.8969" y2="233.8969"/><g data-visibility-modifier="PRIVATE_FIELD"><rect fill="none" height="6" style="stroke:#C82930;stroke-width:1;" width="6" x="377.85" y="244.5453"/></g><text fill="#000000" font-family="sans-serif" font-size="14" lengthAdjust="spacing" textLength="157.1035" x="389.85" y="250.892">planner: PlannerAgent</text><g data-visibility-modifier="PRIVATE_FIELD"><rect fill="none" height="6" style="stroke:#C82930;stroke-width:1;" width="6" x="377.85" y="260.8422"/></g><text fill="#000000" font-family="sans-serif" font-size="14" lengthAdjust="spacing" textLength="191.3926" x="389.85" y="267.1889">structurer: StructurerAgent</text><g data-visibility-modifier="PRIVATE_FIELD"><rect fill="none" height="6" style="stroke:#C82930;stroke-width:1;" width="6" x="377.85" y="277.1391"/></g><text fill="#000000" font-family="sans-serif" font-size="14" lengthAdjust="spacing" textLength="175.7383" x="389.85" y="283.4857">validator: ValidatorAgent</text><g data-visibility-modifier="PRIVATE_FIELD"><rect fill="none" height="6" style="stroke:#C82930;stroke-width:1;" width="6" x="377.85" y="293.4359"/></g><text fill="#000000" font-family="sans-serif" font-size="14" lengthAdjust="spacing" textLength="182.5947" x="389.85" y="299.7826">enhancer: EnhancerAgent</text><g data-visibility-modifier="PRIVATE_FIELD"><rect fill="none" height="6" style="stroke:#C82930;stroke-width:1;" width="6" x="377.85" y="309.7328"/></g><text fill="#000000" font-family="sans-serif" font-size="14" lengthAdjust="spacing" textLength="176.3125" x="389.85" y="316.0795">renderer: RendererAgent</text><g data-visibility-modifier="PRIVATE_FIELD"><rect fill="none" height="6" style="stroke:#C82930;stroke-width:1;" width="6" x="377.85" y="326.0297"/></g><text fill="#000000" font-family="sans-serif" font-size="14" lengthAdjust="spacing" textLength="170.7686" x="389.85" y="332.3764">exporter: ExporterAgent</text><g data-visibility-modifier="PRIVATE_FIELD"><rect fill="none" height="6" style="stroke:#C82930;stroke-width:1;" width="6" x="377.85" y="342.3266"/></g><text fill="#000000" font-family="sans-serif" font-size="14" lengthAdjust="spacing" textLength="136.1787" x="389.85" y="348.6732">tester: TesterAgent</text><line style="stroke:#181818;stroke-width:0.5;" x1="370.85" x2="693.7719" y1="355.975" y2="355.975"/><g data-visibility-modifier="PUBLIC_METHOD"><ellipse cx="380.85" cy="369.6234" fill="#84BE84" rx="3" ry="3" style="stroke:#038048;stroke-width:1;"/></g><text fill="#000000" font-family="sans-serif" font-size="14" lengthAdjust="spacing" textLength="273.8271" x="389.85" y="372.9701">run(input_text: str, answers: Dict): Dict</text><g data-visibility-modifier="PRIVATE_METHOD"><rect fill="#F24D5C" height="6" style="stroke:#C82930;stroke-width:1;" width="6" x="377.85" y="382.9203"/></g><text fill="#000000" font-family="sans-serif" font-size="14" lengthAdjust="spacing" textLength="298.9219" x="389.85" y="389.267">_log_stage(stage: str, duration: float): void</text></g><g class="entity" data-qualified-name="GMN23" data-source-line="93" id="ent0024"><path d="M729.36,263.9669 L729.36,295.2269 L695.01,299.2269 L729.36,303.2269 L729.36,334.4981 A0,0 0 0 0 729.36,334.4981 L959.255,334.4981 A0,0 0 0 0 959.255,334.4981 L959.255,273.9669 L949.255,263.9669 L729.36,263.9669 A0,0 0 0 0 729.36,263.9669" fill="#FEFFDD" style="stroke:#181818;stroke-width:0.5;"/><path d="M949.255,263.9669 L949.255,273.9669 L959.255,273.9669 L949.255,263.9669" fill="#FEFFDD" style="stroke:#181818;stroke-width:0.5;"/><text fill="#000000" font-family="sans-serif" font-size="13" lengthAdjust="spacing" textLength="104.8823" x="735.36" y="281.0338">Responsible for:</text><text fill="#000000" font-family="sans-serif" font-size="13" lengthAdjust="spacing" textLength="201.9063" x="735.36" y="296.1666">- Sequential pipeline execution</text><text fill="#000000" font-family="sans-serif" font-size="13" lengthAdjust="spacing" textLength="145.1582" x="735.36" y="311.2994">- Managing agent flow</text><text fill="#000000" font-family="sans-serif" font-size="13" lengthAdjust="spacing" textLength="208.895" x="735.36" y="326.4322">- Logging metrics (time, tokens)</text></g><!--class FastAPI_App--><g class="entity" data-qualified-name="FastAPI_App" data-source-line="115" id="ent0033"><rect fill="#F1F1F1" height="80.5938" rx="2.5" ry="2.5" style="stroke:#181818;stroke-width:0.5;" width="242.6172" x="1456" y="44.2969"/><ellipse cx="1530.1016" cy="60.2969" fill="#ADD1B2" rx="11" ry="11" style="stroke:#181818;stroke-width:1;"/><path d="M1533.0703,65.9375 Q1532.4922,66.2344 1531.8516,66.375 Q1531.2109,66.5313 1530.5078,66.5313 Q1528.0078,66.5313 1526.6797,64.8906 Q1525.3672,63.2344 1525.3672,60.1094 Q1525.3672,56.9844 1526.6797,55.3281 Q1528.0078,53.6719 1530.5078,53.6719 Q1531.2109,53.6719 1531.8516,53.8281 Q1532.5078,53.9844 1533.0703,54.2813 L1533.0703,57 Q1532.4453,56.4219 1531.8516,56.1563 Q1531.2578,55.875 1530.6328,55.875 Q1529.2891,55.875 1528.6016,56.9531 Q1527.9141,58.0156 1527.9141,60.1094 Q1527.9141,62.2031 1528.6016,63.2813 Q1529.2891,64.3438 1530.6328,64.3438 Q1531.2578,64.3438 1531.8516,64.0781 Q1532.4453,63.7969 1533.0703,63.2188 L1533.0703,65.9375 Z " fill="#000000"/><text fill="#000000" font-family="sans-serif" font-size="14" lengthAdjust="spacing" textLength="85.9141" x="1550.6016" y="65.1436">FastAPI_App</text><line style="stroke:#181818;stroke-width:0.5;" x1="1457" x2="1697.6172" y1="76.2969" y2="76.2969"/><line style="stroke:#181818;stroke-width:0.5;" x1="1457" x2="1697.6172" y1="84.2969" y2="84.2969"/><g data-visibility-modifier="PUBLIC_METHOD"><ellipse cx="1467" cy="97.9453" fill="#84BE84" rx="3" ry="3" style="stroke:#038048;stroke-width:1;"/></g><text fill="#000000" font-family="sans-serif" font-size="14" lengthAdjust="spacing" textLength="216.6172" x="1476" y="101.292">generate(input_text: str): JSON</text><g data-visibility-modifier="PUBLIC_METHOD"><ellipse cx="1467" cy="114.2422" fill="#84BE84" rx="3" ry="3" style="stroke:#038048;stroke-width:1;"/></g><text fill="#000000" font-family="sans-serif" font-size="14" lengthAdjust="spacing" textLength="196.2188" x="1476" y="117.5889">clarify(input_text: str): JSON</text></g><g class="entity" data-qualified-name="GMN36" data-source-line="129" id="ent0037"><path d="M1642.99,271.5269 L1642.99,326.9253 A0,0 0 0 0 1642.99,326.9253 L2171.6184,326.9253 A0,0 0 0 0 2171.6184,326.9253 L2171.6184,281.5269 L2161.6184,271.5269 L1869.29,271.5269 L1638.99,125.3469 L1861.29,271.5269 L1642.99,271.5269 A0,0 0 0 0 1642.99,271.5269" fill="#FEFFDD" style="stroke:#181818;stroke-width:0.5;"/><path d="M2161.6184,271.5269 L2161.6184,281.5269 L2171.6184,281.5269 L2161.6184,271.5269" fill="#FEFFDD" style="stroke:#181818;stroke-width:0.5;"/><text fill="#000000" font-family="sans-serif" font-size="13" lengthAdjust="spacing" textLength="89.3496" x="1648.99" y="288.5938">Pipeline Flow:</text><text fill="#000000" font-family="sans-serif" font-size="13" lengthAdjust="spacing" textLength="507.6284" x="1648.99" y="303.7266">Planner &#8594; Structurer &#8594; Validator &#8594; Enhancer &#8594; Renderer &#8594; Exporter &#8594; Tester</text><text fill="#000000" font-family="sans-serif" font-size="13" lengthAdjust="spacing" textLength="353.6089" x="1648.99" y="318.8594">ClarifierAgent runs independently via /clarify endpoint</text></g><!--reverse link BaseAgent to PlannerAgent--><g class="link" data-entity-1="ent0002" data-entity-2="ent0006" data-link-type="extension" data-source-line="66" id="lnk14"><path codeLine="66" d="M1219.2489,392.4613 C1256.2189,424.9613 1283.21,448.6769 1311.39,473.4469" fill="none" id="BaseAgent-backto-PlannerAgent" style="stroke:#181818;stroke-width:1;"/><polygon fill="none" points="1205.73,380.5769,1215.2875,396.9676,1223.2104,387.9549,1205.73,380.5769" style="stroke:#181818;stroke-width:1;"/></g><!--reverse link BaseAgent to StructurerAgent--><g class="link" data-entity-1="ent0002" data-entity-2="ent0007" data-link-type="extension" data-source-line="67" id="lnk15"><path codeLine="67" d="M1131.07,398.32 C1136.62,430.82 1139.68,448.6769 1143.91,473.4469" fill="none" id="BaseAgent-backto-StructurerAgent" style="stroke:#181818;stroke-width:1;"/><polygon fill="none" points="1128.04,380.5769,1125.1556,399.33,1136.9844,397.31,1128.04,380.5769" style="stroke:#181818;stroke-width:1;"/></g><!--reverse link BaseAgent to ValidatorAgent--><g class="link" data-entity-1="ent0002" data-entity-2="ent0008" data-link-type="extension" data-source-line="68" id="lnk16"><path codeLine="68" d="M995.0629,389.38 C983.8229,395.57 987.99,392.3569 976.31,396.5669 C899.22,424.3669 321.25,439.5669 241.31,457.5669 C235.61,458.8469 229.82,460.3369 224.01,461.9669" fill="none" id="BaseAgent-backto-ValidatorAgent" style="stroke:#181818;stroke-width:1;"/><polygon fill="none" points="1010.83,380.6969,992.1685,384.1243,997.9572,394.6357,1010.83,380.6969" style="stroke:#181818;stroke-width:1;"/></g><!--reverse link BaseAgent to EnhancerAgent--><g class="link" data-entity-1="ent0002" data-entity-2="ent0009" data-link-type="extension" data-source-line="69" id="lnk17"><path codeLine="69" d="M987.1458,390.3002 C978.4558,395.8702 984.88,391.5469 976.31,396.5669 C968.78,400.9769 881.6,442.9869 818.27,473.3969" fill="none" id="BaseAgent-backto-EnhancerAgent" style="stroke:#181818;stroke-width:1;"/><polygon fill="none" points="1002.3,380.5869,983.908,385.2488,990.3836,395.3516,1002.3,380.5869" style="stroke:#181818;stroke-width:1;"/></g><!--reverse link BaseAgent to RendererAgent--><g class="link" data-entity-1="ent0002" data-entity-2="ent0010" data-link-type="extension" data-source-line="70" id="lnk18"><path codeLine="70" d="M994.1658,389.5097 C983.2058,395.5997 987.65,392.2769 976.31,396.5669 C863.96,439.0169 554.73,424.3769 439.31,457.5669 C425.48,461.5469 411.19,467.2969 397.93,473.4469" fill="none" id="BaseAgent-backto-RendererAgent" style="stroke:#181818;stroke-width:1;"/><polygon fill="none" points="1009.9,380.7669,991.2516,384.2649,997.0801,394.7544,1009.9,380.7669" style="stroke:#181818;stroke-width:1;"/></g><!--reverse link BaseAgent to ExporterAgent--><g class="link" data-entity-1="ent0002" data-entity-2="ent0011" data-link-type="extension" data-source-line="71" id="lnk19"><path codeLine="71" d="M992.738,389.491 C982.228,395.491 987.08,392.0369 976.31,396.5669 C841.64,453.1969 792.79,414.1169 653.31,457.5669 C646.03,459.8369 638.59,462.4569 631.19,465.2769" fill="none" id="BaseAgent-backto-ExporterAgent" style="stroke:#181818;stroke-width:1;"/><polygon fill="none" points="1008.37,380.5669,989.7633,384.2803,995.7127,394.7016,1008.37,380.5669" style="stroke:#181818;stroke-width:1;"/></g><!--reverse link BaseAgent to TesterAgent--><g class="link" data-entity-1="ent0002" data-entity-2="ent0012" data-link-type="extension" data-source-line="72" id="lnk20"><path codeLine="72" d="M1038.7102,394.6283 C1012.6902,427.1283 995.42,448.6769 975.59,473.4469" fill="none" id="BaseAgent-backto-TesterAgent" style="stroke:#181818;stroke-width:1;"/><polygon fill="none" points="1049.96,380.5769,1034.0264,390.8784,1043.394,398.3782,1049.96,380.5769" style="stroke:#181818;stroke-width:1;"/></g><!--reverse link BaseAgent to ClarifierAgent--><g class="link" data-entity-1="ent0002" data-entity-2="ent0013" data-link-type="extension" data-source-line="73" id="lnk21"><path codeLine="73" d="M1238.6476,389.8566 C1248.2776,395.6166 1242.61,391.7869 1252.31,396.5669 C1333,436.3269 1360.49,427.5769 1445.31,457.5669 C1459.24,462.4969 1473.97,468.0069 1488.16,473.4769" fill="none" id="BaseAgent-backto-ClarifierAgent" style="stroke:#181818;stroke-width:1;"/><polygon fill="none" points="1223.2,380.6169,1235.5677,395.0058,1241.7275,384.7074,1223.2,380.6169" style="stroke:#181818;stroke-width:1;"/></g><!--reverse link PipelineController to PlannerAgent--><g class="link" data-entity-1="ent0022" data-entity-2="ent0006" data-link-type="composition" data-source-line="103" id="lnk26"><path codeLine="103" d="M706.5065,394.8879 C712.2065,396.9779 706.64,394.7969 712.31,396.5669 C826.96,432.3169 1133.95,424.1469 1249.31,457.5669 C1263.01,461.5369 1277.16,467.2969 1290.29,473.4369" fill="none" id="PipelineController-backto-PlannerAgent" style="stroke:#181818;stroke-width:1;"/><polygon fill="#181818" points="695.24,390.7569,699.4962,396.5779,706.5065,394.8879,702.2503,389.0669,695.24,390.7569" style="stroke:#181818;stroke-width:1;"/></g><!--reverse link PipelineController to StructurerAgent--><g class="link" data-entity-1="ent0022" data-entity-2="ent0007" data-link-type="composition" data-source-line="104" id="lnk27"><path codeLine="104" d="M706.3091,394.58 C712.0491,396.85 706.62,394.5869 712.31,396.5669 C856.04,446.6469 904.4,410.9869 1049.31,457.5669 C1062.57,461.8269 1076.34,467.4869 1089.27,473.3969" fill="none" id="PipelineController-backto-StructurerAgent" style="stroke:#181818;stroke-width:1;"/><polygon fill="#181818" points="695.15,390.1669,699.2585,396.0931,706.3091,394.58,702.2006,388.6537,695.15,390.1669" style="stroke:#181818;stroke-width:1;"/></g><!--reverse link PipelineController to ValidatorAgent--><g class="link" data-entity-1="ent0022" data-entity-2="ent0008" data-link-type="composition" data-source-line="105" id="lnk28"><path codeLine="105" d="M358.819,385.4269 C305.799,411.4669 259.38,434.2569 212.7,457.1869" fill="none" id="PipelineController-backto-ValidatorAgent" style="stroke:#181818;stroke-width:1;"/><polygon fill="#181818" points="369.59,380.1369,362.4411,379.1915,358.819,385.4269,365.9678,386.3722,369.59,380.1369" style="stroke:#181818;stroke-width:1;"/></g><!--reverse link PipelineController to EnhancerAgent--><g class="link" data-entity-1="ent0022" data-entity-2="ent0009" data-link-type="composition" data-source-line="106" id="lnk29"><path codeLine="106" d="M644.9733,405.1032 C674.7833,432.8532 696.42,452.9869 718.64,473.6769" fill="none" id="PipelineController-backto-EnhancerAgent" style="stroke:#181818;stroke-width:1;"/><polygon fill="#181818" points="636.19,396.9269,637.8562,403.9428,644.9733,405.1032,643.3071,398.0873,636.19,396.9269" style="stroke:#181818;stroke-width:1;"/></g><!--reverse link PipelineController to RendererAgent--><g class="link" data-entity-1="ent0022" data-entity-2="ent0010" data-link-type="composition" data-source-line="107" id="lnk30"><path codeLine="107" d="M433.442,405.6806 C407.422,433.4306 389.08,452.9869 369.69,473.6769" fill="none" id="PipelineController-backto-RendererAgent" style="stroke:#181818;stroke-width:1;"/><polygon fill="#181818" points="441.65,396.9269,434.6281,398.5677,433.442,405.6806,440.4639,404.0398,441.65,396.9269" style="stroke:#181818;stroke-width:1;"/></g><!--reverse link PipelineController to ExporterAgent--><g class="link" data-entity-1="ent0022" data-entity-2="ent0011" data-link-type="composition" data-source-line="108" id="lnk31"><path codeLine="108" d="M539.7353,408.8991 C541.3853,433.1291 542.26,445.8169 543.6,465.4469" fill="none" id="PipelineController-backto-ExporterAgent" style="stroke:#181818;stroke-width:1;"/><polygon fill="#181818" points="538.92,396.9269,535.3369,403.1848,539.7353,408.8991,543.3184,402.6413,538.92,396.9269" style="stroke:#181818;stroke-width:1;"/></g><!--reverse link PipelineController to TesterAgent--><g class="link" data-entity-1="ent0022" data-entity-2="ent0012" data-link-type="composition" data-source-line="109" id="lnk32"><path codeLine="109" d="M705.6168,393.3361 C711.4868,396.2661 706.57,393.7769 712.31,396.5669 C772.98,426.0569 789.99,429.4269 851.31,457.5669 C862.31,462.6169 873.94,468.0769 885.22,473.4369" fill="none" id="PipelineController-backto-TesterAgent" style="stroke:#181818;stroke-width:1;"/><polygon fill="#181818" points="694.88,387.9769,698.462,394.2354,705.6168,393.3361,702.0348,387.0776,694.88,387.9769" style="stroke:#181818;stroke-width:1;"/></g><!--link FastAPI_App to PipelineController--><g class="link" data-entity-1="ent0033" data-entity-2="ent0022" data-link-type="dependency" data-source-line="121" id="lnk34"><path codeLine="121" d="M1455.74,88.3569 C1285.56,95.2369 968.42,119.1369 712.31,201.8969 C706.57,203.7469 706.4228,203.6563 700.6528,205.8363" fill="none" id="FastAPI_App-to-PipelineController" style="stroke:#181818;stroke-width:1;"/><polygon fill="#181818" points="695.04,207.9569,704.8729,208.5178,699.7173,206.1897,702.0454,201.0341,695.04,207.9569" style="stroke:#181818;stroke-width:1;"/><text fill="#000000" font-family="sans-serif" font-size="13" lengthAdjust="spacing" textLength="29.7832" x="874.31" y="167.9638">uses</text></g><!--link FastAPI_App to ClarifierAgent--><g class="link" data-entity-1="ent0033" data-entity-2="ent0013" data-link-type="dependency" data-source-line="122" id="lnk35"><path codeLine="122" d="M1576.27,125.0569 C1574.1,207.8469 1569.2677,392.2589 1567.2877,467.5489" fill="none" id="FastAPI_App-to-ClarifierAgent" style="stroke:#181818;stroke-width:1;"/><polygon fill="#181818" points="1567.13,473.5469,1571.3652,464.6551,1567.2614,468.5486,1563.368,464.4448,1567.13,473.5469" style="stroke:#181818;stroke-width:1;"/><text fill="#000000" font-family="sans-serif" font-size="13" lengthAdjust="spacing" textLength="29.7832" x="1575.31" y="303.7938">uses</text></g><?plantuml-src bLRDSjem4BxxAVOMQEBftTDs9asJ9XreCw7JAoFinQW8oP7a4FfpxGFq4ViaNSkomGAJX0Cpqlv9ttxxoPPRWJ3cChjIEaU8OLmAo-Fp7AM5SvqkkCNKbXfXS26OCV21iroprJ2AJjuU_4Kdy9uP1EVUwyHcncgMMaXTrYgYhlap0lh58DaA4o0dlsO5dovnixkrKXcAtOqPPPcMsk-vpLFGfHnmMPJMxGuJka5glIrbGao5M0qAhLP5wz5aF8M2QKhvtIWvq6WA9GrsqloE8gaiWkRvmeAQRoyINJEP2JH95CDeD8RpsnjNpi3WerRtGzg-GwitiEPs0VX8kIcACq6tI9TgFYU7JvCldydaWE9AmfnE2SqvJ8GoWwfwTAmNam9Joif_O0RkOFqzgLjnAvYKg7UxqGSYtRwEcLXTEfOS22ieN-s_5_QDpfKngtItzRgiS8CHDtOdZzM8tJoDJU0qNM2wxBhCb1BRKfTomMHww7pxUTkWEq8OzGk3BgcLsZulgBPPLJEiOwyusERyYiQ-y1WqVfhF-PEDT2Z_FiQW6xb0pMq5Nw_NTdxV_8hZ3eT2My2LqDpbH6Zjj34qTjgr5xdRbj2uWszewk9uTDHkUO62Iv8-9QrMGg1-QjPyn3QW7OAYXZ3fObdRJ0jXiWTdxV7Ge9Y4WDPsz3Wc0Q9-03sGIG2fZ_L89W6cjTKwA9CEf27tffP4pH7m39WqQzHcVovYc0gLJurbEGxSlu_8IiqgEKnWBXIhOXuKp_QbU1_SwAxMJZwZHszEu936Jl2-zC9RDFt3HqpBgWJPnqoodCiScEC4bLnNYgvojxaY2USfQRhbApoZILwYDCFdAVC5FJdASAViWvOxQYrDNOloz0KVuCshSEnwV4A-zBW5hEdnwfAdnwdBeRvC7IhrE7KuTGJPAsPizTwEsER94VI-q_EYQ4MI2Y1n34Es4jMg9xdvU73AiEbpgZJLlVeblTMGRcz2tmK-bbGbsgqVn-yEIKBYKknv1WhllOxYGkI5QqxezVcu2PefQzMgRO8BIo9FBlZtv-yEYToo9OjRDQHmYwRvjSKtsItgPaR1BKWZ3D3dA1PLeBHY0m-SmMiFDWbNLgZg1is8_GS0?></g></svg>